<svg width="347" height="385" viewBox="0 0 347 385" fill="none" xmlns="http://www.w3.org/2000/svg">
<path fill-rule="evenodd" clip-rule="evenodd" d="M250.21 82.9078L301.42 112.473C304.514 114.259 306.42 117.561 306.42 121.133V263.397C306.42 266.97 304.514 270.271 301.42 272.058L270.319 290.014L265.87 287.445L250.21 278.404V82.9078ZM61.2674 215.506L230.318 313.107L178.21 343.191C175.116 344.977 171.304 344.977 168.21 343.191L45.0001 272.058C41.906 270.271 40 266.97 40 263.397L40 227.784L41.21 227.086L61.2674 215.506ZM101.267 192.412L210.21 129.514V255.31L101.267 192.412ZM210.21 83.3257L40 181.596L40 121.133C40 117.561 41.906 114.259 45.0001 112.473L168.21 41.3397C171.304 39.5534 175.116 39.5534 178.21 41.3397L210.21 59.8144V69.2654V83.3257ZM148.211 6.69842C163.68 -2.23281 182.74 -2.2328 198.209 6.69843L321.419 77.8317C336.89 86.7633 346.42 103.27 346.42 121.133V263.397C346.42 281.261 336.89 297.767 321.419 306.699L198.209 377.832C182.74 386.764 163.68 386.764 148.211 377.832L25.0005 306.699C9.53015 297.767 0 281.261 0 263.397L7.31155e-06 121.133C8.07476e-06 103.27 9.53019 86.7633 25.0005 77.8317L148.211 6.69842Z" fill="#AC75D7"/>
</svg>
